# File created by Blade
# Date/Time:  Wed Jan 21 16:09:38 2015
# Frame Rate: 120.000 fps
#------------------------------------------------------
:FULLY-SPECIFIED
:DEGREES
248
root 14.634191 33.739773 -22.147983 -166.827228 79.180623 -173.609996
Spine -8.664643 -6.730548 0.526265
Head 21.686391 -6.225136 1.142960
LeftShoulder -15.214547 -32.815800 21.786789
LeftArm 1.687183 5.447719 -9.878907
LeftForeArm 7.600831 0.000000 -2.545492
LeftHand -7.422664 -0.000000 2.334006
LeftHandThumb1 -26.253704 0.000000 33.147579
RightShoulder -15.045490 -5.685969 -10.171367
RightArm 1.630050 40.408172 14.368602
RightForeArm -34.781115 0.000000 4.927226
RightHand -7.251500 -0.000000 4.048481
RightHandThumb1 -24.326973 -0.000000 -32.862282
LeftUpLeg 15.080643 4.633328 -4.368340
LeftLeg -11.194449 -0.000000 0.000000
LeftFoot -11.865876 29.479974 14.585684
LeftToeBase -137.203880 -0.000000 0.000000
RightUpLeg -26.850016 -0.549587 3.783760
RightLeg -0.823182 -0.000000 0.000000
RightFoot -0.371489 -31.381039 7.389007
RightToeBase 12.985902 -0.000000 -0.000000
249
root 14.641269 33.716993 -22.132231 -166.873636 79.100066 -173.808629
Spine -8.544680 -6.737523 0.502049
Head 21.177459 -6.305493 1.220107
LeftShoulder -15.179869 -33.089986 21.880303
LeftArm 1.551432 5.170768 -9.684209
LeftForeArm 7.535417 -0.000000 -2.523044
LeftHand -7.493823 0.000000 2.502720
LeftHandThumb1 -26.253704 0.000000 33.147579
RightShoulder -15.050830 -5.405598 -10.283225
RightArm 1.273073 40.482427 14.158861
RightForeArm -35.030705 -0.000000 5.012228
RightHand -7.415345 -0.000000 4.034638
RightHandThumb1 -24.326973 -0.000000 -32.862282
LeftUpLeg 14.825023 4.432341 -4.390465
LeftLeg -10.930307 -0.000000 0.000000
LeftFoot -12.070559 29.713221 14.843925
LeftToeBase -136.750433 -0.000000 0.000000
RightUpLeg -26.905175 -0.659858 3.778670
RightLeg -1.084402 -0.000000 0.000000
RightFoot 0.301018 -31.618417 7.280099
RightToeBase 13.473177 -0.000000 -0.000000
250
root 14.652214 33.695347 -22.116309 -166.881837 79.014084 -173.955405
Spine -8.419151 -6.810115 0.490109
Head 20.681190 -6.341865 1.347671
LeftShoulder -15.236735 -33.331798 22.007166
LeftArm 1.454463 5.007801 -9.476523
LeftForeArm 7.432759 -0.000000 -2.543584
LeftHand -7.637872 -0.000000 2.611766
LeftHandThumb1 -26.253704 0.000000 33.147579
RightShoulder -15.017158 -5.240863 -10.307283
RightArm 1.005263 40.633504 13.918312
RightForeArm -35.260207 0.000000 5.040688
RightHand -7.526653 -0.000000 3.953427
RightHandThumb1 -24.326973 -0.000000 -32.862282
LeftUpLeg 14.590130 4.350211 -4.378866
LeftLeg -10.671231 -0.000000 0.000000
LeftFoot -12.256163 29.860575 15.146330
LeftToeBase -136.281633 -0.000000 0.000000
RightUpLeg -26.908766 -0.782736 3.780086
RightLeg -1.412688 -0.000000 0.000000
RightFoot 1.056584 -31.737467 6.955816
RightToeBase 15.034500 -0.000000 -0.000000
251
root 14.664394 33.673855 -22.102007 -167.031468 78.974550 -174.214095
Spine -8.232333 -6.852812 0.447779
Head 20.170915 -6.342155 1.446993
LeftShoulder -15.335660 -33.491771 22.143961
LeftArm 1.385170 4.745446 -9.299371
LeftForeArm 7.366898 0.000000 -2.496367
LeftHand -7.805098 0.000000 2.808118
LeftHandThumb1 -26.253704 0.000000 33.147579
RightShoulder -14.953272 -4.967181 -10.369687
RightArm 0.632061 40.705876 13.649484
RightForeArm -35.504217 -0.000000 5.168309
RightHand -7.814870 -0.000000 3.942154
RightHandThumb1 -24.326973 -0.000000 -32.862282
LeftUpLeg 14.414686 4.373012 -4.385173
LeftLeg -10.458566 -0.000000 0.000000
LeftFoot -12.399023 29.961974 15.409092
LeftToeBase -135.907304 -0.000000 0.000000
RightUpLeg -26.892461 -0.855120 3.754345
RightLeg -1.735529 -0.000000 0.000000
RightFoot 1.979921 -31.774455 6.190637
RightToeBase 16.910962 -0.000000 -0.000000
252
root 14.677261 33.652710 -22.090233 -167.374762 78.940446 -174.682228
Spine -8.055018 -6.843581 0.337219
Head 19.654766 -6.422271 1.572602
LeftShoulder -15.404830 -33.593982 22.276937
LeftArm 1.386700 4.497057 -9.157976
LeftForeArm 7.315383 0.000000 -2.525835
LeftHand -7.913310 0.000000 3.015442
LeftHandThumb1 -26.253704 0.000000 33.147579
RightShoulder -14.982335 -4.827986 -10.357728
RightArm 0.380565 40.812624 13.414810
RightForeArm -35.674430 -0.000000 5.218593
RightHand -7.950612 0.000000 3.762400
RightHandThumb1 -24.326973 -0.000000 -32.862282
LeftUpLeg 14.260876 4.366148 -4.438156
LeftLeg -10.305102 -0.000000 0.000000
LeftFoot -12.505566 30.037325 15.623158
LeftToeBase -135.621904 -0.000000 0.000000
RightUpLeg -26.905041 -0.949842 3.702050
RightLeg -2.021281 -0.000000 0.000000
RightFoot 2.651597 -31.583769 5.262647
RightToeBase 19.739123 -0.000000 -0.000000
253
root 14.690585 33.634429 -22.081022 -167.749285 78.886024 -175.189346
Spine -7.897388 -6.863197 0.248128
Head 19.210975 -6.486456 1.667104
LeftShoulder -15.431920 -33.720772 22.403315
LeftArm 1.269659 4.291426 -9.028158
LeftForeArm 7.315794 -0.000000 -2.505113
LeftHand -8.015213 -0.000000 3.188703
LeftHandThumb1 -26.253704 0.000000 33.147579
RightShoulder -14.984283 -4.657583 -10.410580
RightArm 0.072108 40.920334 13.219077
RightForeArm -35.868193 0.000000 5.346205
RightHand -8.117386 -0.000000 3.438889
RightHandThumb1 -24.326973 -0.000000 -32.862282
LeftUpLeg 14.127870 4.345162 -4.497919
LeftLeg -10.218621 -0.000000 0.000000
LeftFoot -12.564761 30.111782 15.760636
LeftToeBase -135.462450 -0.000000 0.000000
RightUpLeg -26.918513 -1.112067 3.670766
RightLeg -2.344316 -0.000000 0.000000
RightFoot 3.310072 -31.407300 4.586390
RightToeBase 21.698873 -0.000000 -0.000000
254
root 14.700287 33.618117 -22.070091 -168.074796 78.834608 -175.708291
Spine -7.797236 -6.890879 0.166711
Head 18.766524 -6.468257 1.734826
LeftShoulder -15.493234 -33.838425 22.512950
LeftArm 1.202058 4.192104 -8.873686
LeftForeArm 7.350700 -0.000000 -2.504011
LeftHand -8.041051 -0.000000 3.365196
LeftHandThumb1 -26.253704 0.000000 33.147579
RightShoulder -15.019115 -4.595072 -10.455006
RightArm -0.118047 40.976885 13.111881
RightForeArm -35.950869 0.000000 5.430450
RightHand -8.309269 -0.000000 3.146992
RightHandThumb1 -24.326973 -0.000000 -32.862282
LeftUpLeg 13.948376 4.291407 -4.564103
LeftLeg -10.176001 -0.000000 0.000000
LeftFoot -12.602880 30.130815 15.892242
LeftToeBase -135.312019 -0.000000 0.000000
RightUpLeg -27.009421 -1.223538 3.632546
RightLeg -2.621361 -0.000000 0.000000
RightFoot 3.851558 -31.405276 4.175727
RightToeBase 22.785717 -0.000000 -0.000000
